<svg width="24" height="24" viewBox="0 0 24 24" fill="none" xmlns="http://www.w3.org/2000/svg">
<path fill-rule="evenodd" clip-rule="evenodd" d="M15.9576 9H8.06753C7.98719 9 7.91032 9 7.83507 9V8.38449C7.83507 7.50071 7.84155 6.84824 7.98395 6.19145C8.12125 5.55907 8.3741 5.012 8.75684 4.53685C9.52626 3.58179 10.7377 3.0317 12.0126 3.0317C13.2877 3.0317 14.4989 3.58179 15.2683 4.53685C15.6513 5.012 15.9041 5.55907 16.0412 6.19145C16.1838 6.84824 16.1901 7.50071 16.1901 8.38449V9C16.1151 9 16.0382 9 15.9576 9ZM20 12.7891C20 12.2891 20.0008 11.8984 19.9946 11.6438C19.9879 11.3645 19.9712 11.1274 19.9279 10.8989C19.8395 10.4345 19.6357 10.0207 19.2733 9.68098C19.0135 9.43736 18.7121 9.27127 18.38 9.16566V8.38449C18.38 7.39315 18.3705 6.54846 18.1545 5.64525C17.9454 4.77162 17.5634 3.9725 16.9799 3.26625C15.8036 1.84274 13.9663 1 12.0126 1C10.0588 1 8.22152 1.84274 7.04528 3.26625C6.46179 3.9725 6.07973 4.77162 5.87088 5.64525C5.65462 6.54846 5.64512 7.39315 5.64512 8.38449V9.16566C5.31309 9.27127 5.01163 9.43736 4.75183 9.68098C4.38947 10.0207 4.1857 10.4345 4.09725 10.8989C4.05372 11.1274 4.03729 11.3645 4.03057 11.6438C4.02432 11.8984 4.0252 12.2891 4.0252 12.7891L4.00004 18.2106C4.00004 18.7106 3.99916 19.1013 4.00542 19.356C4.01213 19.6352 4.02857 19.8726 4.0721 20.1009C4.16055 20.5652 4.36431 20.9792 4.72668 21.3188C5.08881 21.6585 5.53059 21.8492 6.02586 21.9324C6.26968 21.973 6.52276 21.9885 6.82029 21.9948C7.09236 22.0006 7.50913 22 8.04238 22H15.9325C16.4657 22 16.8827 22.0006 17.1543 21.9948C17.4521 21.9885 17.7052 21.973 17.949 21.9324C18.4443 21.8492 18.886 21.6585 19.2482 21.3188C19.6105 20.9792 19.8143 20.5652 19.9027 20.1009C19.946 19.8726 19.9627 19.6352 19.9694 19.356C19.9757 19.1013 19.9748 18.7106 19.9748 18.2106L20 12.7891Z" fill="#171010"/>
</svg>
