<svg width="24" height="24" viewBox="0 0 24 24" fill="none" xmlns="http://www.w3.org/2000/svg">
<path d="M19.6602 4.98992C17.0202 3.18992 13.7602 4.02992 12.0002 6.08992C10.2402 4.02992 6.98021 3.17992 4.34021 4.98992C2.94021 5.94992 2.06021 7.56992 2.00021 9.27992C1.86021 13.1599 5.30021 16.2699 10.5502 21.0399L10.6502 21.1299C11.4102 21.8199 12.5802 21.8199 13.3402 21.1199L13.4502 21.0199C18.7002 16.2599 22.1302 13.1499 22.0002 9.26992C21.9402 7.56992 21.0602 5.94992 19.6602 4.98992ZM12.1002 19.5499L12.0002 19.6499L11.9002 19.5499C7.14021 15.2399 4.00021 12.3899 4.00021 9.49992C4.00021 7.49992 5.50021 5.99992 7.50021 5.99992C9.04021 5.99992 10.5402 6.98992 11.0702 8.35992H12.9402C13.4602 6.98992 14.9602 5.99992 16.5002 5.99992C18.5002 5.99992 20.0002 7.49992 20.0002 9.49992C20.0002 12.3899 16.8602 15.2399 12.1002 19.5499Z" fill="#8ce6ce"/>
</svg>
