<svg width="24" height="24" viewBox="0 0 24 24" fill="none" xmlns="http://www.w3.org/2000/svg">
<g clip-path="url(#clip0)">
<path d="M11.6148 5.45982L19.096 12.941C20.5739 14.4189 20.8072 16.816 19.4778 18.4282C17.9505 20.2808 15.214 20.3727 13.5594 18.7181L4.81953 9.97823C3.89322 9.05193 3.71644 7.54579 4.54375 6.53463C5.49835 5.3679 7.21662 5.30426 8.25607 6.34371L15.6807 13.7683C16.0696 14.1572 16.0696 14.7936 15.6807 15.1825C15.2918 15.5714 14.6554 15.5714 14.2665 15.1825L8.07929 8.99536C7.78937 8.70544 7.30854 8.70544 7.01863 8.99536C6.72871 9.28527 6.72871 9.7661 7.01863 10.056L13.1068 16.1442C14.0331 17.0705 15.5393 17.2473 16.5504 16.42C17.7172 15.4654 17.7808 13.7471 16.7413 12.7077L9.43693 5.40325C7.95908 3.9254 5.56199 3.69206 3.94979 5.02142C2.10424 6.5417 2.00524 9.28527 3.65987 10.9399L12.3361 19.6161C14.3655 21.6455 17.6677 21.9778 19.8809 20.1464C22.4194 18.0322 22.5538 14.2774 20.2769 12.0006L12.6755 4.39916C12.3856 4.10925 11.9047 4.10925 11.6148 4.39916C11.3249 4.68908 11.3249 5.16991 11.6148 5.45982Z" fill="#171010"/>
</g>
<defs>
<clipPath id="clip0">
<rect width="24" height="24" fill="white"/>
</clipPath>
</defs>
</svg>
